<?xml version="1.0" standalone="no"?><!DOCTYPE svg PUBLIC "-//W3C//DTD SVG 1.1//EN" "http://www.w3.org/Graphics/SVG/1.1/DTD/svg11.dtd"><svg t="1628344327812" class="icon" viewBox="0 0 1024 1024" version="1.1" xmlns="http://www.w3.org/2000/svg" p-id="7725" xmlns:xlink="http://www.w3.org/1999/xlink" width="200" height="200"><defs><style type="text/css"></style></defs><path d="M337.3 420.8c-11.5 0-23-4.4-31.7-13.1L162.3 264.4c-17.5-17.5-17.5-45.9 0-63.5 17.5-17.5 45.9-17.5 63.5 0L369 344.2c17.5 17.5 17.5 45.9 0 63.5-8.7 8.7-20.2 13.1-31.7 13.1zM841.6 925c-11.5 0-23-4.4-31.7-13.1L395.4 497.5c-17.5-17.5-17.5-45.9 0-63.5 17.5-17.5 45.9-17.5 63.5 0l414.4 414.4c17.5 17.5 17.5 45.9 0 63.5-8.8 8.8-20.3 13.1-31.7 13.1z" fill="#333333" p-id="7726"></path><path d="M179.2 925c-11.5 0-23-4.4-31.7-13.1-17.5-17.5-17.5-45.9 0-63.5l467.9-467.9c17.5-17.5 45.9-17.5 63.5 0 17.5 17.5 17.5 45.9 0 63.5l-468 467.9c-8.8 8.8-20.3 13.1-31.7 13.1zM340.5 546.4c-42.8 0-85.7-16.3-118.3-48.9L75.7 351c-17.5-17.5-17.5-45.9 0-63.5 17.5-17.5 45.9-17.5 63.5 0L285.7 434c30.3 30.2 79.4 30.2 109.7 0 30.2-30.2 30.2-79.5 0-109.7L248.9 177.8c-17.5-17.5-17.5-45.9 0-63.5 17.5-17.5 45.9-17.5 63.5 0l146.5 146.5c65.2 65.2 65.2 171.4 0 236.6-32.7 32.7-75.5 49-118.4 49z" fill="#333333" p-id="7727"></path><path d="M748.1 507.7c-44.7 0-90.3-21.3-132.8-63.7-81.3-81.3-85-174.6-10-249.6 85.1-85.1 217.4-136.1 306.5-46.9 78.8 78.8 60.4 199.1-46.9 306.5-35.8 35.8-75.9 53.7-116.8 53.7z m-79.3-249.9c-26.2 26.2-48.8 63.9 10 122.7 58.8 58.8 96.5 36.2 122.7 9.9 11.6-11.6 111.4-115.1 46.9-179.6-48.6-48.5-134 1.5-179.6 47z" fill="#333333" p-id="7728"></path></svg>